<svg xmlns="http://www.w3.org/2000/svg" width="582.685" height="126.311" viewBox="0 0 582.685 126.311">
  <g id="Group_8" data-name="Group 8" transform="translate(-1408.016 -330.617)">
    <path id="Path_4" data-name="Path 4" d="M77.208,62.021,71.021,90.871H66.853a50.963,50.963,0,0,0-7.717-14.914A51.662,51.662,0,0,0,47.12,64.039a73.675,73.675,0,0,1-9.9,12.374A67.962,67.962,0,0,1,25.6,85.791a55.95,55.95,0,0,1-12.8,6.057A42.169,42.169,0,0,1-.227,94,23.8,23.8,0,0,1-4,93.672l2.084-4.95a50.525,50.525,0,0,0,5.21.391q17.844,0,31.781-13.937a76.349,76.349,0,0,0,5.829-6.61,105.168,105.168,0,0,0,6.154-8.759q7.1-11.136,12.113-20.84L65.29,27.178Q72.519,13.307,76.426,8.39t7.75-4.917a4.443,4.443,0,0,1,2.182.521,3.568,3.568,0,0,1,1.465,1.53,4.826,4.826,0,0,1,.521,2.247,15.981,15.981,0,0,1-.326,2.67q-.326,2.345-.391,2.54L77.664,59.806h4.624l-.456,2.214Zm-6.122,0H48.357l.261.2a70.693,70.693,0,0,1,9.964,9.118,77.908,77.908,0,0,1,8.141,11.2Zm-20.97-2.214H71.542L80.79,15.521q.456-2.149.456-2.214a8.25,8.25,0,0,0,.391-2.345q0-1.628-1.433-1.628-1.758,0-4.233,3.712t-8.6,15.239q-.912,1.758-3.712,7.1-2.345,4.233-2.54,4.689L54.87,51.47Q50.962,58.569,50.115,59.806ZM101.5,27.243a3.822,3.822,0,0,1,2.67,6.513,3.639,3.639,0,0,1-2.67,1.107,4.014,4.014,0,0,1-3.842-3.842,3.639,3.639,0,0,1,1.107-2.67A3.716,3.716,0,0,1,101.5,27.243ZM99.611,52.773,93.88,74.2a34.138,34.138,0,0,0-1.433,8.466,7,7,0,0,0,.716,3.387,2.133,2.133,0,0,0,1.889,1.3q2.019,0,6.447-4.819l1.042.912-.651.716a62.424,62.424,0,0,1-5.471,5.894,5.166,5.166,0,0,1-3.256,1.53,4.072,4.072,0,0,1-3.419-2.051,8.863,8.863,0,0,1-1.4-5.112,38.353,38.353,0,0,1,.782-6.187l4.1-22.794Zm12.5,1.107h21.3l.521,1.563-.977,1.172-7.424,8.922Q117.26,75.567,114.59,78.921t-5.08,6.871q3.256.326,8.206.326,4.3,0,8.6-.13,1.237,0,4.038-.2l-.651,5.145h-25.79l-.782-1.693.912-1.042q1.042-1.172,2.605-3t3.842-4.526q2.279-2.7,3.68-4.4t2.182-2.67l5.992-7.62q3.387-4.3,5.666-7.359H111.138Zm61.218-1.5-6.122,23.836a27.029,27.029,0,0,0-.977,6.122,6.536,6.536,0,0,0,.847,3.387,2.438,2.438,0,0,0,2.084,1.433q1.889,0,6.252-4.624l.912.912-.716.847a59,59,0,0,1-5.308,5.568,5.356,5.356,0,0,1-3.224,1.6,4.385,4.385,0,0,1-3.614-2.182,8.568,8.568,0,0,1-1.53-5.047,61.931,61.931,0,0,1,1.563-9.443l.521-2.475a48.34,48.34,0,0,1-6.447,10.746q-6.773,8.6-12.96,8.6a7.12,7.12,0,0,1-5.861-2.67,11.1,11.1,0,0,1-2.149-7.164,27.858,27.858,0,0,1,3.484-12.83,35.483,35.483,0,0,1,8.662-11.039q5.177-4.331,10.062-4.331a8.634,8.634,0,0,1,7.685,3.777l.716-2.475Zm-7.489,8.336a7.539,7.539,0,0,0-2.638-3.875,6.893,6.893,0,0,0-4.266-1.4,9.728,9.728,0,0,0-6.057,2.638,26.163,26.163,0,0,0-5.861,7.327,42.6,42.6,0,0,0-3.484,8.206,26.042,26.042,0,0,0-1.4,7.424,9.246,9.246,0,0,0,1.27,5.21,4.1,4.1,0,0,0,3.614,1.889q3,0,6.252-2.8a33.784,33.784,0,0,0,6.447-8.01,30.089,30.089,0,0,0,3.061-5.992q1.107-3,2.475-8.336Z" transform="translate(1814.372 331.069)" fill="#fff"/>
    <path id="Path_3" data-name="Path 3" d="M78.1,128.893q-.293.1-.293.2l-.782.391a61.785,61.785,0,0,1-28.818,7.034,50.477,50.477,0,0,1-21.345-4.3A32.754,32.754,0,0,1,12.5,120a33.488,33.488,0,0,1-5.031-18.365q0-23.738,31.456-41.615l.684-.391v-.586a67.618,67.618,0,0,1,3.224-20.661,49.764,49.764,0,0,1,8.5-16.558q9.573-11.625,21-11.625a14.17,14.17,0,0,1,10.013,3.566,11.551,11.551,0,0,1,3.859,8.841q0,11.82-17.682,23.152Q65.6,47.714,57.585,52.208q-8.694,4.787-11.43,6.154.391,8.792,4.543,20.124A90.051,90.051,0,0,0,60.809,98.512,95.906,95.906,0,0,0,83.668,121.86a64.231,64.231,0,0,0,12.211-11.381,58.489,58.489,0,0,0,8.45-13.383,31.839,31.839,0,0,0,3.077-12.944q0-6.252-3.273-10.111a10.568,10.568,0,0,0-8.45-3.859q-13.676,0-20.319,23.934l-5.08-7.522A35.991,35.991,0,0,1,75.8,75.263a27.166,27.166,0,0,1,8.5-7.717A20.077,20.077,0,0,1,94.316,64.81a15.893,15.893,0,0,1,8.5,2.345,16.459,16.459,0,0,1,6.008,6.545,19.71,19.71,0,0,1,2.2,9.28,32.087,32.087,0,0,1-1.856,10.4,54.148,54.148,0,0,1-5.08,10.7,68.871,68.871,0,0,1-8.059,10.55,66.047,66.047,0,0,1-9.818,8.89l.488.293q9.964,6.252,20.124,6.252a27.355,27.355,0,0,0,13.334-3.028q5.519-3.028,11.185-10.257l1.368,1.563q-11.625,17.682-30.283,17.682A46.511,46.511,0,0,1,78.1,128.893Zm-3.028-1.856a74.612,74.612,0,0,1-24.422-26.815A88.679,88.679,0,0,1,39.708,63.149l-.1-.488q-21.882,13.969-21.882,34,0,14.946,10.453,24.862t26.18,9.915A50.333,50.333,0,0,0,75.071,127.037ZM46.155,55.627q13.969-7.424,21.1-12.993a32.32,32.32,0,0,0,8.6-9.427A20.267,20.267,0,0,0,79.076,22.9a8.381,8.381,0,0,0-2.589-6.545A9.868,9.868,0,0,0,69.6,14.012q-6.252,0-11.674,5.129a35.8,35.8,0,0,0-8.645,13.774,52.556,52.556,0,0,0-3.224,18.512v2.54Z" transform="translate(1682.089 320.415)" fill="#fff"/>
    <path id="Path_2" data-name="Path 2" d="M14.014,93.167l2.41-5.861A33.912,33.912,0,0,0,29.839,89.91a25.894,25.894,0,0,0,15.142-4.591q6.61-4.591,11.82-14.035a71.8,71.8,0,0,0,3.321-7.131q1.628-4.005,4.038-11.234,2.019-5.992,3.94-12.927t3.256-12.667q1.335-5.731,2.572-12.765L80.9,11.434l-.456-.065-1.3-.2A232.121,232.121,0,0,0,50.744,9.35a63.572,63.572,0,0,0-11.723.912,24.243,24.243,0,0,0-8.076,2.931q-4.559,2.866-4.559,7.359,0,9.183,22.924,10.42L44.883,35.6a34.412,34.412,0,0,1-10.876-2.279A17.266,17.266,0,0,1,26.876,28.3a11.04,11.04,0,0,1-2.507-7.1q0-8.01,10.094-12.895,8.531-4.1,25.073-4.1,4.494,0,11.495.521t14.49,1.335q7.489.814,12.439,1.726l1.172.2L96.2,13.844l-1.172-.2Q89.3,12.606,81.679,11.5l-.456-.065-.2.912-.2.912A318.292,318.292,0,0,1,70.217,51.975Q64.746,67.181,57.908,76.3A41.07,41.07,0,0,1,41.985,89.52q-9.085,4.1-21.459,4.1A46.918,46.918,0,0,1,14.014,93.167Zm72.68-21.036q5.6-6.773,7.489-12.634-5.275-2.931-5.275-8.4a6.808,6.808,0,0,1,1.237-4.233,3.776,3.776,0,0,1,3.126-1.628,3.736,3.736,0,0,1,3.191,1.791A8.028,8.028,0,0,1,97.7,51.682a16.3,16.3,0,0,1-.716,4.494,12.826,12.826,0,0,0,3.191.456,9.553,9.553,0,0,0,6.643-2.345h3.126l-.456.912a124.351,124.351,0,0,0-7.717,16.9Q98.742,80.4,98.742,84.5a3.973,3.973,0,0,0,.782,2.507,2.324,2.324,0,0,0,1.889,1.009q2.67,0,8.6-5.666l1.042,1.172a46.315,46.315,0,0,1-5.666,5.015q-3.452,2.735-6.447,2.735a5.021,5.021,0,0,1-4.005-1.693,6.829,6.829,0,0,1-1.465-4.624q0-4.884,3.777-12.374,1.368-2.8,3.517-6.382t5.405-8.531l.651-.912a14.477,14.477,0,0,1-4.135,2.768,11.85,11.85,0,0,1-4.526.814,10.212,10.212,0,0,1-2.475-.326,40.04,40.04,0,0,1-7.815,13.155Zm8.922-16.542a17.831,17.831,0,0,0,.261-2.735,7.209,7.209,0,0,0-.749-3.582,2.2,2.2,0,0,0-1.921-1.3,1.427,1.427,0,0,0-1.14.619,2.393,2.393,0,0,0-.488,1.53Q91.578,53.179,95.616,55.589ZM130.458,27a3.822,3.822,0,0,1,2.67,6.513,3.639,3.639,0,0,1-2.67,1.107,4.014,4.014,0,0,1-3.842-3.842,3.639,3.639,0,0,1,1.107-2.67A3.716,3.716,0,0,1,130.458,27ZM128.57,52.528l-5.731,21.426a34.137,34.137,0,0,0-1.433,8.466,7,7,0,0,0,.716,3.387,2.133,2.133,0,0,0,1.889,1.3q2.019,0,6.447-4.819l1.042.912-.651.716a62.424,62.424,0,0,1-5.471,5.894,5.166,5.166,0,0,1-3.256,1.53,4.072,4.072,0,0,1-3.419-2.051,8.863,8.863,0,0,1-1.4-5.112,38.352,38.352,0,0,1,.782-6.187l4.1-22.794Zm2.605,33.93,3.647-4.3q2.866,6.773,9.118,6.773a7.956,7.956,0,0,0,5.568-2.117,6.485,6.485,0,0,0,2.312-4.917,5.477,5.477,0,0,0-1.107-3.452,38.549,38.549,0,0,0-5.275-4.819,32.474,32.474,0,0,1-5.177-4.917,6.734,6.734,0,0,1-1.335-4.135,9.8,9.8,0,0,1,1.791-5.666,13.751,13.751,0,0,1,11.1-5.8,8.055,8.055,0,0,1,4.917,1.465,4.47,4.47,0,0,1,1.986,3.745,4.084,4.084,0,0,1-2.54,4.1,7.441,7.441,0,0,0-2.312-4.787,7.079,7.079,0,0,0-4.917-1.726,6.876,6.876,0,0,0-4.656,1.726,5.121,5.121,0,0,0-1.986,3.94q0,2.735,3.387,5.405l3.777,3.061q5.536,4.363,5.536,8.922a11.462,11.462,0,0,1-1.921,6.35,13.872,13.872,0,0,1-5.21,4.722,14.5,14.5,0,0,1-6.936,1.758Q135.147,91.8,131.175,86.459ZM175.59,55.85l-4.95,21.687a27.754,27.754,0,0,0-.781,5.08,6.01,6.01,0,0,0,1.107,3.777,3.522,3.522,0,0,0,2.931,1.433,5.561,5.561,0,0,0,3.224-1.009,33.307,33.307,0,0,0,4.461-4.2l.782-.782.977.977a40.866,40.866,0,0,1-6.415,6.61,8.462,8.462,0,0,1-5.047,1.921,6.388,6.388,0,0,1-4.982-2.051,7.7,7.7,0,0,1-1.856-5.373,38.161,38.161,0,0,1,.977-7.164L170.25,55.85H164l.456-2.214h6.252l3.647-17.584,6.252-2.475-4.559,20.059H186.6l-.456,2.214Zm48.193-3.712-6.122,23.836a27.029,27.029,0,0,0-.977,6.122,6.536,6.536,0,0,0,.847,3.387,2.438,2.438,0,0,0,2.084,1.433q1.889,0,6.252-4.624l.912.912-.716.847a59,59,0,0,1-5.308,5.568,5.356,5.356,0,0,1-3.224,1.6,4.385,4.385,0,0,1-3.614-2.182,8.568,8.568,0,0,1-1.53-5.047,61.931,61.931,0,0,1,1.563-9.443l.521-2.475a48.34,48.34,0,0,1-6.447,10.746q-6.773,8.6-12.96,8.6a7.12,7.12,0,0,1-5.861-2.67,11.1,11.1,0,0,1-2.149-7.164,27.859,27.859,0,0,1,3.484-12.83A35.483,35.483,0,0,1,199.2,57.706q5.177-4.331,10.062-4.331a8.634,8.634,0,0,1,7.685,3.777l.716-2.475Zm-7.489,8.336a7.539,7.539,0,0,0-2.638-3.875,6.893,6.893,0,0,0-4.266-1.4,9.728,9.728,0,0,0-6.057,2.638,26.163,26.163,0,0,0-5.861,7.327,42.594,42.594,0,0,0-3.484,8.206,26.042,26.042,0,0,0-1.4,7.424,9.246,9.246,0,0,0,1.27,5.21,4.1,4.1,0,0,0,3.614,1.889q3,0,6.252-2.8a33.783,33.783,0,0,0,6.447-8.01,30.089,30.089,0,0,0,3.061-5.992q1.107-3,2.475-8.336Zm14.784,30.8,6.9-36.08,6.187-2.67-5.6,23.9q5.405-11.4,10.746-17.323t10.225-5.926a5.113,5.113,0,0,1,3.908,1.6,5.98,5.98,0,0,1,1.5,4.266,18.055,18.055,0,0,1-.716,4.233l-.651,2.735-1.954,7.945-.651,2.54a26.848,26.848,0,0,0-.977,5.992,6.806,6.806,0,0,0,.716,3.354,2.134,2.134,0,0,0,1.889,1.27q2.019,0,6.447-4.819l1.042.912-.651.716a62.428,62.428,0,0,1-5.471,5.894,5.166,5.166,0,0,1-3.256,1.53,4.072,4.072,0,0,1-3.419-2.051,8.862,8.862,0,0,1-1.4-5.112,36.239,36.239,0,0,1,.782-6.187l2.54-13.807a33.936,33.936,0,0,0,.521-4.559,2.823,2.823,0,0,0-.716-2.084,2.64,2.64,0,0,0-1.954-.716q-4.494,0-11.071,9.639a61.328,61.328,0,0,0-5.275,9.15,120.328,120.328,0,0,0-4.689,12.537l-.586,1.758Z" transform="translate(1394.002 330.89)" fill="#fff"/>
  </g>
</svg>
